<svg xmlns="http://www.w3.org/2000/svg" viewBox="0 0 900 380" width="900" height="380">
<defs>
  <style>
    @keyframes swing {
      0%   { transform: rotate(-20deg) translateX(-20px); }
      50%  { transform: rotate(17deg)  translateX(20px);  }
      100% { transform: rotate(-20deg) translateX(-20px); }
    }
    @keyframes r1 { from{transform:translateY(-40px) translateX(2px)} to{transform:translateY(420px) translateX(2px)} }
    @keyframes r2 { from{transform:translateY(-40px) translateX(4px)} to{transform:translateY(420px) translateX(4px)} }
    @keyframes r3 { from{transform:translateY(-40px) translateX(1px)} to{transform:translateY(420px) translateX(1px)} }
    @keyframes city1 { from{transform:translateX(0)} to{transform:translateX(-900px)} }
    @keyframes city2 { from{transform:translateX(900px)} to{transform:translateX(0)} }
    @keyframes glow  { 0%,100%{filter:drop-shadow(0 0 12px #ff0000) drop-shadow(0 0 35px #880000)} 50%{filter:drop-shadow(0 0 28px #ff2200) drop-shadow(0 0 70px #cc0000) drop-shadow(0 0 120px #550000)} }
    @keyframes ltng  { 0%,87%,91%,100%{opacity:0} 88%,90%{opacity:.2} }
    @keyframes fog   { 0%{transform:translateX(-80px);opacity:.08} 50%{opacity:.18} 100%{transform:translateX(80px);opacity:.08} }
    @keyframes blink { 0%,44%,56%,100%{opacity:.9} 50%{opacity:.15} }
    @keyframes web   { 0%,100%{opacity:.75} 50%{opacity:1} }
    @keyframes textGlow { 0%,100%{filter:drop-shadow(0 0 8px #ff0000)} 50%{filter:drop-shadow(0 0 20px #ff4400) drop-shadow(0 0 40px #cc0000)} }
    @keyframes scanline { from{transform:translateY(-100%)} to{transform:translateY(100%)} }
    .sp  { transform-origin:450px 0; animation:swing 3.4s ease-in-out infinite }
    .glw { animation:glow 3.4s ease-in-out infinite }
    .ra  { animation:r1 .52s linear infinite }
    .rb  { animation:r2 .70s linear infinite .19s }
    .rc  { animation:r3 .61s linear infinite .38s }
    .rd  { animation:r1 .45s linear infinite .08s }
    .re  { animation:r2 .66s linear infinite .28s }
    .ca  { animation:city1 15s linear infinite }
    .cb  { animation:city2 15s linear infinite }
    .lt  { animation:ltng 9s linear infinite }
    .fg  { animation:fog 11s ease-in-out infinite }
    .fg2 { animation:fog 14s ease-in-out infinite reverse }
    .bl  { animation:blink 3.5s ease-in-out infinite }
    .bl2 { animation:blink 4.2s ease-in-out infinite 1.2s }
    .wb  { animation:web 3.4s ease-in-out infinite }
    .tg  { animation:textGlow 2.5s ease-in-out infinite }
  </style>

  <!-- Gradients -->
  <linearGradient id="sky" x1="0" y1="0" x2="0" y2="1">
    <stop offset="0%"   stop-color="#000008"/>
    <stop offset="40%"  stop-color="#060012"/>
    <stop offset="100%" stop-color="#1e0008"/>
  </linearGradient>
  <linearGradient id="g1" x1="0" y1="0" x2="0" y2="1">
    <stop offset="0%"   stop-color="#0e2035"/>
    <stop offset="100%" stop-color="#02060a"/>
  </linearGradient>
  <linearGradient id="g2" x1="0" y1="0" x2="0" y2="1">
    <stop offset="0%"   stop-color="#0b1828"/>
    <stop offset="100%" stop-color="#020508"/>
  </linearGradient>
  <linearGradient id="g3" x1="0" y1="0" x2="0" y2="1">
    <stop offset="0%"   stop-color="#14082e"/>
    <stop offset="100%" stop-color="#030208"/>
  </linearGradient>
  <linearGradient id="gnd" x1="0" y1="0" x2="0" y2="1">
    <stop offset="0%"   stop-color="#130003"/>
    <stop offset="100%" stop-color="#000000"/>
  </linearGradient>
  <linearGradient id="gndG" x1="0" y1="0" x2="0" y2="1">
    <stop offset="0%"   stop-color="#cc0000" stop-opacity="0"/>
    <stop offset="100%" stop-color="#dd0000" stop-opacity="0.45"/>
  </linearGradient>
  <radialGradient id="moon" cx="50%" cy="50%" r="50%">
    <stop offset="0%"   stop-color="#fff9e8" stop-opacity="1"/>
    <stop offset="60%"  stop-color="#ffe888" stop-opacity="0.7"/>
    <stop offset="100%" stop-color="#ffcc00" stop-opacity="0"/>
  </radialGradient>
  <radialGradient id="hr" cx="44%" cy="32%" r="58%">
    <stop offset="0%"   stop-color="#ff6666"/>
    <stop offset="55%"  stop-color="#dd1111"/>
    <stop offset="100%" stop-color="#880000"/>
  </radialGradient>
  <radialGradient id="br" cx="44%" cy="28%" r="62%">
    <stop offset="0%"   stop-color="#ff5555"/>
    <stop offset="100%" stop-color="#990000"/>
  </radialGradient>
  <linearGradient id="bl2c" x1="0" y1="0" x2="1" y2="1">
    <stop offset="0%"   stop-color="#5577ff"/>
    <stop offset="100%" stop-color="#112299"/>
  </linearGradient>
  <linearGradient id="blL" x1="0" y1="0" x2="0" y2="1">
    <stop offset="0%"   stop-color="#3355ee"/>
    <stop offset="100%" stop-color="#0a1888"/>
  </linearGradient>
  <radialGradient id="vig" cx="50%" cy="50%" r="70%">
    <stop offset="0%"   stop-color="transparent"/>
    <stop offset="100%" stop-color="#000000" stop-opacity=".7"/>
  </radialGradient>
  <linearGradient id="webG" x1="0" y1="0" x2="0" y2="1">
    <stop offset="0%"   stop-color="#ffffff" stop-opacity=".95"/>
    <stop offset="100%" stop-color="#aaaaaa" stop-opacity=".2"/>
  </linearGradient>
  <clipPath id="cl"><rect width="900" height="380"/></clipPath>
</defs>

<g clip-path="url(#cl)">

<!-- SKY -->
<rect width="900" height="380" fill="url(#sky)"/>

<!-- LIGHTNING -->
<rect class="lt" width="900" height="380" fill="#8899ff" opacity=".2"/>

<!-- STARS -->
<circle cx="28"  cy="14" r=".9" fill="white" opacity=".7"/>
<circle cx="90"  cy="7"  r="1"  fill="white" opacity=".6"/>
<circle cx="165" cy="20" r=".8" fill="white" opacity=".8"/>
<circle cx="265" cy="9"  r="1"  fill="white" opacity=".6"/>
<circle cx="365" cy="5"  r=".9" fill="white" opacity=".7"/>
<circle cx="480" cy="17" r=".8" fill="white" opacity=".5"/>
<circle cx="580" cy="8"  r="1"  fill="white" opacity=".7"/>
<circle cx="670" cy="22" r=".8" fill="white" opacity=".6"/>
<circle cx="770" cy="11" r="1"  fill="white" opacity=".8"/>
<circle cx="860" cy="6"  r=".9" fill="white" opacity=".6"/>

<!-- MOON -->
<circle cx="820" cy="50" r="50" fill="url(#moon)" opacity=".12"/>
<circle cx="820" cy="50" r="32" fill="url(#moon)" opacity=".25"/>
<circle cx="820" cy="50" r="18" fill="#fff9e0" opacity=".92"/>
<circle cx="828" cy="43" r="4"  fill="#f0e090" opacity=".32"/>
<circle cx="814" cy="54" r="2.5" fill="#f0e090" opacity=".25"/>
<circle cx="824" cy="58" r="1.5" fill="#f0e090" opacity=".22"/>

<!-- ═══ CITY LAYER 1 ═══ -->
<g class="ca">
  <!-- BG faint towers -->
  <rect x="0"   y="210" width="38" height="170" fill="#040810" opacity=".7"/>
  <rect x="42"  y="195" width="30" height="185" fill="#050a12" opacity=".7"/>
  <rect x="76"  y="202" width="44" height="178" fill="#040810" opacity=".7"/>
  <rect x="124" y="188" width="34" height="192" fill="#050a12" opacity=".7"/>
  <rect x="162" y="196" width="50" height="184" fill="#040810" opacity=".7"/>
  <rect x="216" y="180" width="40" height="200" fill="#050a12" opacity=".7"/>
  <rect x="260" y="190" width="36" height="190" fill="#040810" opacity=".7"/>
  <rect x="300" y="175" width="58" height="205" fill="#050a12" opacity=".7"/>
  <rect x="362" y="198" width="34" height="182" fill="#040810" opacity=".7"/>
  <rect x="400" y="184" width="48" height="196" fill="#050a12" opacity=".7"/>
  <rect x="452" y="205" width="38" height="175" fill="#040810" opacity=".7"/>
  <rect x="494" y="176" width="60" height="204" fill="#050a12" opacity=".7"/>
  <rect x="558" y="193" width="32" height="187" fill="#040810" opacity=".7"/>
  <rect x="594" y="179" width="52" height="201" fill="#050a12" opacity=".7"/>
  <rect x="650" y="198" width="40" height="182" fill="#040810" opacity=".7"/>
  <rect x="694" y="172" width="65" height="208" fill="#050a12" opacity=".7"/>
  <rect x="763" y="190" width="38" height="190" fill="#040810" opacity=".7"/>
  <rect x="805" y="177" width="55" height="203" fill="#050a12" opacity=".7"/>
  <rect x="864" y="194" width="42" height="186" fill="#040810" opacity=".7"/>

  <!-- MAIN TOWERS -->
  <rect x="0"   y="162" width="58" height="218" fill="url(#g1)"/>
  <rect x="62"  y="108" width="80" height="272" fill="url(#g2)"/>
  <rect x="98"  y="78"  width="7"  height="32"  fill="#0a1520"/>
  <circle cx="101" cy="76" r="6" fill="#cc0000" opacity=".9" class="bl"/>
  <rect x="146" y="128" width="54" height="252" fill="url(#g3)"/>
  <!-- Empire State style -->
  <rect x="204" y="85"  width="105" height="295" fill="url(#g1)"/>
  <rect x="228" y="60"  width="57"  height="28"  fill="url(#g1)"/>
  <rect x="245" y="36"  width="23"  height="26"  fill="url(#g1)"/>
  <rect x="255" y="14"  width="5"   height="24"  fill="#091520"/>
  <circle cx="257" cy="12" r="6" fill="#cc0000" opacity=".9" class="bl2"/>
  <!-- more towers -->
  <rect x="314" y="115" width="68" height="265" fill="url(#g2)"/>
  <rect x="386" y="95"  width="92" height="285" fill="url(#g3)"/>
  <rect x="424" y="70"  width="7"  height="27"  fill="#0a0e18"/>
  <circle cx="427" cy="68" r="6" fill="#cc0000" opacity=".9" class="bl"/>
  <rect x="482" y="122" width="52" height="258" fill="url(#g1)"/>
  <rect x="538" y="90"  width="88" height="290" fill="url(#g2)"/>
  <rect x="578" y="62"  width="7"  height="30"  fill="#091520"/>
  <circle cx="581" cy="60" r="6" fill="#cc0000" opacity=".9" class="bl2"/>
  <rect x="630" y="112" width="62" height="268" fill="url(#g3)"/>
  <!-- Tallest -->
  <rect x="696" y="72"  width="112" height="308" fill="url(#g1)"/>
  <rect x="728" y="44"  width="48"  height="30"  fill="url(#g1)"/>
  <rect x="744" y="20"  width="16"  height="26"  fill="url(#g1)"/>
  <rect x="751" y="2"   width="5"   height="20"  fill="#091520"/>
  <circle cx="753" cy="0" r="6" fill="#cc0000" opacity=".9" class="bl"/>
  <rect x="812" y="100" width="74" height="280" fill="url(#g2)"/>
  <rect x="850" y="84"  width="66" height="296" fill="url(#g3)"/>
  <rect x="883" y="58"  width="7"  height="28"  fill="#0a1520"/>
  <circle cx="886" cy="56" r="6" fill="#cc0000" opacity=".9" class="bl2"/>

  <!-- WINDOWS — warm yellow + cold blue -->
  <!-- Tower at 62 -->
  <rect x="70"  y="116" width="11" height="9" fill="#FFE066" opacity=".85" class="bl2"/>
  <rect x="86"  y="116" width="11" height="9" fill="#FFE066" opacity=".5"/>
  <rect x="102" y="116" width="11" height="9" fill="#88CCFF" opacity=".78"/>
  <rect x="118" y="116" width="11" height="9" fill="#FFE066" opacity=".6"/>
  <rect x="70"  y="133" width="11" height="9" fill="#FFE066" opacity=".4"/>
  <rect x="102" y="133" width="11" height="9" fill="#FFE066" opacity=".92"/>
  <rect x="118" y="133" width="11" height="9" fill="#88CCFF" opacity=".5"/>
  <rect x="70"  y="150" width="11" height="9" fill="#FFE066" opacity=".7"/>
  <rect x="86"  y="150" width="11" height="9" fill="#88CCFF" opacity=".4"/>
  <rect x="118" y="150" width="11" height="9" fill="#FFE066" opacity=".8"/>
  <!-- Empire 204 -->
  <rect x="212" y="95"  width="13" height="10" fill="#FFE066" opacity=".9"/>
  <rect x="230" y="95"  width="13" height="10" fill="#FFE066" opacity=".55"/>
  <rect x="248" y="95"  width="13" height="10" fill="#88CCFF" opacity=".82"/>
  <rect x="266" y="95"  width="13" height="10" fill="#FFE066" opacity=".5"/>
  <rect x="284" y="95"  width="13" height="10" fill="#FFE066" opacity=".72"/>
  <rect x="302" y="95"  width="13" height="10" fill="#88CCFF" opacity=".4"/>
  <rect x="212" y="113" width="13" height="10" fill="#FFE066" opacity=".5"/>
  <rect x="248" y="113" width="13" height="10" fill="#FFE066" opacity=".88"/>
  <rect x="284" y="113" width="13" height="10" fill="#88CCFF" opacity=".65"/>
  <rect x="302" y="113" width="13" height="10" fill="#FFE066" opacity=".7"/>
  <rect x="212" y="131" width="13" height="10" fill="#FFE066" opacity=".72"/>
  <rect x="230" y="131" width="13" height="10" fill="#88CCFF" opacity=".42"/>
  <rect x="266" y="131" width="13" height="10" fill="#FFE066" opacity=".62"/>
  <rect x="302" y="131" width="13" height="10" fill="#FFE066" opacity=".82"/>
  <rect x="212" y="149" width="13" height="10" fill="#FFE066" opacity=".45"/>
  <rect x="248" y="149" width="13" height="10" fill="#FFE066" opacity=".75"/>
  <rect x="284" y="149" width="13" height="10" fill="#88CCFF" opacity=".55"/>
  <!-- Tower 386 -->
  <rect x="394" y="104" width="12" height="9" fill="#FFE066" opacity=".82"/>
  <rect x="411" y="104" width="12" height="9" fill="#88CCFF" opacity=".68"/>
  <rect x="428" y="104" width="12" height="9" fill="#FFE066" opacity=".5"/>
  <rect x="445" y="104" width="12" height="9" fill="#FFE066" opacity=".92"/>
  <rect x="462" y="104" width="12" height="9" fill="#88CCFF" opacity=".38"/>
  <rect x="394" y="121" width="12" height="9" fill="#FFE066" opacity=".5"/>
  <rect x="428" y="121" width="12" height="9" fill="#FFE066" opacity=".78"/>
  <rect x="462" y="121" width="12" height="9" fill="#88CCFF" opacity=".62"/>
  <rect x="394" y="138" width="12" height="9" fill="#FFE066" opacity=".68"/>
  <rect x="445" y="138" width="12" height="9" fill="#FFE066" opacity=".42"/>
  <!-- Tower 538 -->
  <rect x="546" y="99"  width="13" height="10" fill="#FFE066" opacity=".88"/>
  <rect x="564" y="99"  width="13" height="10" fill="#88CCFF" opacity=".72"/>
  <rect x="582" y="99"  width="13" height="10" fill="#FFE066" opacity=".52"/>
  <rect x="600" y="99"  width="13" height="10" fill="#FFE066" opacity=".78"/>
  <rect x="546" y="117" width="13" height="10" fill="#FFE066" opacity=".46"/>
  <rect x="582" y="117" width="13" height="10" fill="#FFE066" opacity=".82"/>
  <rect x="600" y="117" width="13" height="10" fill="#88CCFF" opacity=".56"/>
  <!-- Tallest 696 -->
  <rect x="704" y="82"  width="14" height="11" fill="#FFE066" opacity=".92"/>
  <rect x="723" y="82"  width="14" height="11" fill="#FFE066" opacity=".56"/>
  <rect x="742" y="82"  width="14" height="11" fill="#88CCFF" opacity=".88"/>
  <rect x="761" y="82"  width="14" height="11" fill="#FFE066" opacity=".52"/>
  <rect x="780" y="82"  width="14" height="11" fill="#FFE066" opacity=".72"/>
  <rect x="799" y="82"  width="14" height="11" fill="#88CCFF" opacity=".42"/>
  <rect x="704" y="101" width="14" height="11" fill="#FFE066" opacity=".52"/>
  <rect x="742" y="101" width="14" height="11" fill="#FFE066" opacity=".88"/>
  <rect x="761" y="101" width="14" height="11" fill="#88CCFF" opacity=".62"/>
  <rect x="799" y="101" width="14" height="11" fill="#FFE066" opacity=".72"/>
  <rect x="704" y="120" width="14" height="11" fill="#FFE066" opacity=".72"/>
  <rect x="723" y="120" width="14" height="11" fill="#88CCFF" opacity=".46"/>
  <rect x="761" y="120" width="14" height="11" fill="#FFE066" opacity=".56"/>
  <rect x="799" y="120" width="14" height="11" fill="#FFE066" opacity=".78"/>
  <rect x="704" y="139" width="14" height="11" fill="#FFE066" opacity=".48"/>
  <rect x="742" y="139" width="14" height="11" fill="#88CCFF" opacity=".72"/>
  <rect x="780" y="139" width="14" height="11" fill="#FFE066" opacity=".58"/>
</g>

<!-- CITY LAYER 2 (seamless) -->
<g class="cb">
  <rect x="62"  y="108" width="80"  height="272" fill="url(#g2)"/>
  <rect x="98"  y="78"  width="7"   height="32"  fill="#0a1520"/>
  <circle cx="101" cy="76" r="6" fill="#cc0000" opacity=".9" class="bl"/>
  <rect x="204" y="85"  width="105" height="295" fill="url(#g1)"/>
  <rect x="228" y="60"  width="57"  height="28"  fill="url(#g1)"/>
  <rect x="245" y="36"  width="23"  height="26"  fill="url(#g1)"/>
  <rect x="255" y="14"  width="5"   height="24"  fill="#091520"/>
  <circle cx="257" cy="12" r="6" fill="#cc0000" opacity=".9" class="bl2"/>
  <rect x="386" y="95"  width="92"  height="285" fill="url(#g3)"/>
  <rect x="424" y="70"  width="7"   height="27"  fill="#0a0e18"/>
  <circle cx="427" cy="68" r="6" fill="#cc0000" opacity=".9" class="bl"/>
  <rect x="538" y="90"  width="88"  height="290" fill="url(#g2)"/>
  <rect x="578" y="62"  width="7"   height="30"  fill="#091520"/>
  <circle cx="581" cy="60" r="6" fill="#cc0000" opacity=".9" class="bl2"/>
  <rect x="696" y="72"  width="112" height="308" fill="url(#g1)"/>
  <rect x="728" y="44"  width="48"  height="30"  fill="url(#g1)"/>
  <rect x="744" y="20"  width="16"  height="26"  fill="url(#g1)"/>
  <rect x="751" y="2"   width="5"   height="20"  fill="#091520"/>
  <circle cx="753" cy="0" r="6" fill="#cc0000" opacity=".9" class="bl"/>
  <!-- key windows -->
  <rect x="212" y="95"  width="13" height="10" fill="#FFE066" opacity=".9"/>
  <rect x="248" y="95"  width="13" height="10" fill="#88CCFF" opacity=".82"/>
  <rect x="394" y="104" width="12" height="9"  fill="#FFE066" opacity=".82"/>
  <rect x="704" y="82"  width="14" height="11" fill="#FFE066" opacity=".92"/>
  <rect x="742" y="82"  width="14" height="11" fill="#88CCFF" opacity=".88"/>
</g>

<!-- FOG -->
<ellipse class="fg"  cx="350" cy="290" rx="550" ry="70" fill="#550010" opacity=".14"/>
<ellipse class="fg2" cx="650" cy="280" rx="500" ry="55" fill="#330018" opacity=".10"/>

<!-- RAIN (5 layers) -->
<g class="ra" opacity=".36">
  <line x1="48"  y1="-8" x2="44"  y2="22" stroke="#aad4ff" stroke-width=".85"/>
  <line x1="148" y1="-8" x2="144" y2="22" stroke="#aad4ff" stroke-width=".65"/>
  <line x1="248" y1="-8" x2="244" y2="22" stroke="#aad4ff" stroke-width=".95"/>
  <line x1="348" y1="-8" x2="344" y2="22" stroke="#aad4ff" stroke-width=".7"/>
  <line x1="448" y1="-8" x2="444" y2="22" stroke="#aad4ff" stroke-width=".85"/>
  <line x1="548" y1="-8" x2="544" y2="22" stroke="#aad4ff" stroke-width=".6"/>
  <line x1="648" y1="-8" x2="644" y2="22" stroke="#aad4ff" stroke-width=".95"/>
  <line x1="748" y1="-8" x2="744" y2="22" stroke="#aad4ff" stroke-width=".7"/>
  <line x1="848" y1="-8" x2="844" y2="22" stroke="#aad4ff" stroke-width=".85"/>
</g>
<g class="rb" opacity=".28">
  <line x1="98"  y1="-8" x2="94"  y2="20" stroke="#bbdeff" stroke-width=".75"/>
  <line x1="198" y1="-8" x2="194" y2="20" stroke="#bbdeff" stroke-width=".95"/>
  <line x1="298" y1="-8" x2="294" y2="20" stroke="#bbdeff" stroke-width=".55"/>
  <line x1="398" y1="-8" x2="394" y2="20" stroke="#bbdeff" stroke-width=".85"/>
  <line x1="498" y1="-8" x2="494" y2="20" stroke="#bbdeff" stroke-width=".75"/>
  <line x1="598" y1="-8" x2="594" y2="20" stroke="#bbdeff" stroke-width=".95"/>
  <line x1="698" y1="-8" x2="694" y2="20" stroke="#bbdeff" stroke-width=".55"/>
  <line x1="798" y1="-8" x2="794" y2="20" stroke="#bbdeff" stroke-width=".75"/>
  <line x1="898" y1="-8" x2="894" y2="20" stroke="#bbdeff" stroke-width=".85"/>
</g>
<g class="rc" opacity=".20">
  <line x1="28"  y1="-8" x2="25"  y2="18" stroke="#99bbee" stroke-width=".5"/>
  <line x1="128" y1="-8" x2="125" y2="18" stroke="#99bbee" stroke-width=".7"/>
  <line x1="228" y1="-8" x2="225" y2="18" stroke="#99bbee" stroke-width=".45"/>
  <line x1="328" y1="-8" x2="325" y2="18" stroke="#99bbee" stroke-width=".65"/>
  <line x1="428" y1="-8" x2="425" y2="18" stroke="#99bbee" stroke-width=".5"/>
  <line x1="528" y1="-8" x2="525" y2="18" stroke="#99bbee" stroke-width=".75"/>
  <line x1="628" y1="-8" x2="625" y2="18" stroke="#99bbee" stroke-width=".45"/>
  <line x1="728" y1="-8" x2="725" y2="18" stroke="#99bbee" stroke-width=".65"/>
  <line x1="828" y1="-8" x2="825" y2="18" stroke="#99bbee" stroke-width=".5"/>
</g>
<g class="rd" opacity=".23">
  <line x1="73"  y1="-8" x2="70"  y2="19" stroke="#cce0ff" stroke-width=".6"/>
  <line x1="173" y1="-8" x2="170" y2="19" stroke="#cce0ff" stroke-width=".45"/>
  <line x1="273" y1="-8" x2="270" y2="19" stroke="#cce0ff" stroke-width=".8"/>
  <line x1="373" y1="-8" x2="370" y2="19" stroke="#cce0ff" stroke-width=".55"/>
  <line x1="473" y1="-8" x2="470" y2="19" stroke="#cce0ff" stroke-width=".65"/>
  <line x1="573" y1="-8" x2="570" y2="19" stroke="#cce0ff" stroke-width=".42"/>
  <line x1="673" y1="-8" x2="670" y2="19" stroke="#cce0ff" stroke-width=".78"/>
  <line x1="773" y1="-8" x2="770" y2="19" stroke="#cce0ff" stroke-width=".52"/>
  <line x1="873" y1="-8" x2="870" y2="19" stroke="#cce0ff" stroke-width=".68"/>
</g>
<g class="re" opacity=".16">
  <line x1="58"  y1="-8" x2="56"  y2="21" stroke="#ddeeff" stroke-width=".42"/>
  <line x1="158" y1="-8" x2="156" y2="21" stroke="#ddeeff" stroke-width=".62"/>
  <line x1="258" y1="-8" x2="256" y2="21" stroke="#ddeeff" stroke-width=".52"/>
  <line x1="358" y1="-8" x2="356" y2="21" stroke="#ddeeff" stroke-width=".42"/>
  <line x1="458" y1="-8" x2="456" y2="21" stroke="#ddeeff" stroke-width=".72"/>
  <line x1="558" y1="-8" x2="556" y2="21" stroke="#ddeeff" stroke-width=".52"/>
  <line x1="658" y1="-8" x2="656" y2="21" stroke="#ddeeff" stroke-width=".42"/>
  <line x1="758" y1="-8" x2="756" y2="21" stroke="#ddeeff" stroke-width=".62"/>
  <line x1="858" y1="-8" x2="856" y2="21" stroke="#ddeeff" stroke-width=".52"/>
</g>

<!-- WET GROUND -->
<rect x="0" y="316" width="900" height="64" fill="url(#gnd)"/>
<rect x="0" y="316" width="900" height="64" fill="url(#gndG)"/>
<rect x="80"  y="322" width="22" height="5" fill="#FFE066" opacity=".22" rx="2"/>
<rect x="258" y="325" width="28" height="4" fill="#FFE066" opacity=".18" rx="2"/>
<rect x="442" y="323" width="24" height="5" fill="#88CCFF" opacity=".20" rx="2"/>
<rect x="710" y="322" width="30" height="4" fill="#FFE066" opacity=".16" rx="2"/>
<rect x="858" y="324" width="22" height="5" fill="#FFE066" opacity=".18" rx="2"/>
<line x1="0" y1="316" x2="900" y2="316" stroke="#cc0000" stroke-width="1.2" opacity=".5"/>

<!-- ═══ SPIDER-MAN ═══ -->
<g class="sp glw">

  <!-- WEB ROPE from ceiling -->
  <line x1="450" y1="0" x2="450" y2="108" stroke="url(#webG)" stroke-width="2.2" class="wb"/>

  <!-- ═══ HEAD ═══ -->
  <ellipse cx="450" cy="124" rx="30" ry="32" fill="url(#hr)"/>
  <!-- Web mask lines -->
  <line x1="450" y1="92"  x2="450" y2="156" stroke="#7a0000" stroke-width="1.1" opacity=".72"/>
  <line x1="420" y1="124" x2="480" y2="124" stroke="#7a0000" stroke-width=".9"  opacity=".62"/>
  <line x1="422" y1="108" x2="478" y2="140" stroke="#7a0000" stroke-width=".7"  opacity=".56"/>
  <line x1="478" y1="108" x2="422" y2="140" stroke="#7a0000" stroke-width=".7"  opacity=".56"/>
  <ellipse cx="450" cy="124" rx="20" ry="21" fill="none" stroke="#7a0000" stroke-width=".65" opacity=".5"/>
  <ellipse cx="450" cy="124" rx="10" ry="11" fill="none" stroke="#7a0000" stroke-width=".5"  opacity=".38"/>

  <!-- EYES — big iconic white lenses -->
  <ellipse cx="436" cy="117" rx="16" ry="11" fill="white" opacity=".97"/>
  <ellipse cx="464" cy="117" rx="16" ry="11" fill="white" opacity=".97"/>
  <ellipse cx="436" cy="117" rx="13" ry="8.5" fill="#d8e8f2"/>
  <ellipse cx="464" cy="117" rx="13" ry="8.5" fill="#d8e8f2"/>
  <ellipse cx="432" cy="115" rx="5"  ry="3.5" fill="white" opacity=".72"/>
  <ellipse cx="460" cy="115" rx="5"  ry="3.5" fill="white" opacity=".72"/>

  <!-- ═══ NECK ═══ -->
  <rect x="442" y="152" width="16" height="12" fill="url(#hr)" rx="3"/>

  <!-- ═══ TORSO — wide muscular ═══ -->
  <ellipse cx="450" cy="196" rx="36" ry="42" fill="url(#br)"/>
  <!-- Blue side panels -->
  <path d="M414 178 Q398 196 402 222 Q412 236 426 240" fill="url(#bl2c)" opacity=".88"/>
  <path d="M486 178 Q502 196 498 222 Q488 236 474 240" fill="url(#bl2c)" opacity=".88"/>
  <!-- Torso web lines -->
  <line x1="450" y1="156" x2="450" y2="236" stroke="#7a0000" stroke-width="1.4" opacity=".55"/>
  <line x1="414" y1="196" x2="486" y2="196" stroke="#7a0000" stroke-width="1.1" opacity=".5"/>
  <ellipse cx="450" cy="196" rx="24" ry="28" fill="none" stroke="#7a0000" stroke-width=".9" opacity=".42"/>
  <ellipse cx="450" cy="196" rx="12" ry="14" fill="none" stroke="#7a0000" stroke-width=".6" opacity=".32"/>

  <!-- Spider chest emblem -->
  <g transform="translate(450,193)">
    <ellipse cx="0" cy="3.5" rx="11"  ry="7"   fill="#080808" opacity=".94"/>
    <ellipse cx="0" cy="-7"  rx="6.5" ry="5.5" fill="#080808" opacity=".94"/>
    <line x1="-11" y1="1"  x2="-22" y2="-6"  stroke="#080808" stroke-width="2.5" opacity=".94"/>
    <line x1="-11" y1="4"  x2="-21" y2="9"   stroke="#080808" stroke-width="2.5" opacity=".94"/>
    <line x1="-10" y1="7"  x2="-18" y2="17"  stroke="#080808" stroke-width="2.2" opacity=".94"/>
    <line x1="11"  y1="1"  x2="22"  y2="-6"  stroke="#080808" stroke-width="2.5" opacity=".94"/>
    <line x1="11"  y1="4"  x2="21"  y2="9"   stroke="#080808" stroke-width="2.5" opacity=".94"/>
    <line x1="10"  y1="7"  x2="18"  y2="17"  stroke="#080808" stroke-width="2.2" opacity=".94"/>
  </g>

  <!-- ═══ LEFT ARM — thick, reaching up for web ═══ -->
  <path d="M416 172 Q382 148 364 120" stroke="url(#bl2c)" stroke-width="22" fill="none" stroke-linecap="round"/>
  <path d="M416 172 Q382 148 364 120" stroke="url(#br)"   stroke-width="17" fill="none" stroke-linecap="round"/>
  <!-- blue sleeve -->
  <path d="M416 172 Q400 162 390 152" stroke="url(#bl2c)" stroke-width="20" fill="none" stroke-linecap="round"/>

  <!-- ═══ RIGHT ARM — outstretched web-shooting ═══ -->
  <path d="M484 172 Q520 148 540 118" stroke="url(#bl2c)" stroke-width="22" fill="none" stroke-linecap="round"/>
  <path d="M484 172 Q520 148 540 118" stroke="url(#br)"   stroke-width="17" fill="none" stroke-linecap="round"/>
  <path d="M484 172 Q500 162 510 152" stroke="url(#bl2c)" stroke-width="20" fill="none" stroke-linecap="round"/>

  <!-- HANDS -->
  <circle cx="363" cy="118" r="15" fill="url(#hr)"/>
  <ellipse cx="359" cy="114" rx="5" ry="3.5" fill="white" opacity=".62"/>
  <circle cx="541" cy="116" r="15" fill="url(#hr)"/>
  <ellipse cx="537" cy="112" rx="5" ry="3.5" fill="white" opacity=".62"/>
  <!-- Web shooter sparkle -->
  <circle cx="553" cy="109" r="5.5" fill="white" opacity=".82"/>
  <line x1="553" y1="109" x2="582" y2="97"  stroke="white" stroke-width="1.8" opacity=".68" stroke-dasharray="5,2"/>
  <line x1="553" y1="109" x2="585" y2="116" stroke="white" stroke-width="1.2" opacity=".42" stroke-dasharray="3,3"/>
  <line x1="553" y1="109" x2="578" y2="102" stroke="white" stroke-width=".9" opacity=".35" stroke-dasharray="2,4"/>

  <!-- ═══ HIPS ═══ -->
  <ellipse cx="450" cy="234" rx="30" ry="18" fill="url(#blL)"/>

  <!-- ═══ LEFT LEG ═══ -->
  <path d="M432 246 Q398 278 384 314" stroke="url(#br)"  stroke-width="22" fill="none" stroke-linecap="round"/>
  <path d="M384 314 Q376 332 372 348" stroke="url(#blL)" stroke-width="20" fill="none" stroke-linecap="round"/>
  <!-- boot -->
  <ellipse cx="371" cy="351" rx="20" ry="13" fill="url(#blL)"/>
  <ellipse cx="367" cy="347" rx="8"  ry="5"  fill="#4466ee" opacity=".48"/>

  <!-- ═══ RIGHT LEG ═══ -->
  <path d="M468 246 Q502 278 518 314" stroke="url(#br)"  stroke-width="22" fill="none" stroke-linecap="round"/>
  <path d="M518 314 Q526 332 530 348" stroke="url(#blL)" stroke-width="20" fill="none" stroke-linecap="round"/>
  <ellipse cx="531" cy="351" rx="20" ry="13" fill="url(#blL)"/>
  <ellipse cx="527" cy="347" rx="8"  ry="5"  fill="#4466ee" opacity=".48"/>

</g>
<!-- END SPIDER-MAN -->

<!-- Vignette -->
<rect width="900" height="380" fill="url(#vig)"/>

</g>
</svg>
