<svg xmlns="http://www.w3.org/2000/svg" viewBox="0 0 1000 320" width="1000" height="320">
<defs>
  <style>
    @keyframes swing {
      0%   { transform: rotate(-18deg) translateX(-30px); }
      50%  { transform: rotate(16deg)  translateX(30px);  }
      100% { transform: rotate(-18deg) translateX(-30px); }
    }
    @keyframes cityMove {
      from { transform: translateX(0); }
      to   { transform: translateX(-1000px); }
    }
    @keyframes cityMove2 {
      from { transform: translateX(1000px); }
      to   { transform: translateX(0); }
    }
    @keyframes rain {
      from { transform: translateY(-320px); }
      to   { transform: translateY(320px); }
    }
    @keyframes pulse {
      0%,100% { opacity: 0.7; }
      50%      { opacity: 1;   }
    }
    @keyframes redLight {
      0%,100% { fill: #cc0000; opacity: 0.9; }
      50%      { fill: #ff2200; opacity: 1;   }
    }
    @keyframes glow {
      0%,100% { filter: drop-shadow(0 0 8px #ff0000) drop-shadow(0 0 20px #990000); }
      50%      { filter: drop-shadow(0 0 20px #ff3300) drop-shadow(0 0 50px #cc0000) drop-shadow(0 0 80px #660000); }
    }
    @keyframes webShoot {
      0%,100% { stroke-dashoffset: 300; opacity:0; }
      20%,80% { stroke-dashoffset: 0;   opacity:0.85; }
    }
    @keyframes fog {
      0%   { transform: translateX(-200px); opacity:0.12; }
      50%  { opacity:0.22; }
      100% { transform: translateX(200px);  opacity:0.12; }
    }
    @keyframes lightning {
      0%,92%,96%,100% { opacity:0; }
      93%,95%          { opacity:0.15; }
    }
    .spidey       { transform-origin: 500px 0px; animation: swing 3.5s ease-in-out infinite; }
    .spidey-glow  { animation: glow 3.5s ease-in-out infinite; }
    .city1        { animation: cityMove  16s linear infinite; }
    .city2        { animation: cityMove2 16s linear infinite; }
    .rain1        { animation: rain 0.6s linear infinite; }
    .rain2        { animation: rain 0.8s linear infinite 0.2s; }
    .rain3        { animation: rain 0.7s linear infinite 0.4s; }
    .rain4        { animation: rain 0.9s linear infinite 0.1s; }
    .rain5        { animation: rain 0.65s linear infinite 0.35s; }
    .fog1         { animation: fog 12s ease-in-out infinite; }
    .fog2         { animation: fog 15s ease-in-out infinite reverse; }
    .lightning    { animation: lightning 8s linear infinite; }
    .rlight       { animation: redLight 2s ease-in-out infinite; }
    .pulse        { animation: pulse 2s ease-in-out infinite; }
    .web-rope     { stroke-dasharray:300; animation: webShoot 3.5s ease-in-out infinite; }
  </style>

  <!-- Sky -->
  <linearGradient id="sky" x1="0" y1="0" x2="0" y2="1">
    <stop offset="0%"   stop-color="#000008"/>
    <stop offset="45%"  stop-color="#04000f"/>
    <stop offset="100%" stop-color="#160006"/>
  </linearGradient>

  <!-- Building gradients - dark glass towers -->
  <linearGradient id="b1" x1="0" y1="0" x2="0" y2="1">
    <stop offset="0%"   stop-color="#0c1824"/>
    <stop offset="100%" stop-color="#020508"/>
  </linearGradient>
  <linearGradient id="b2" x1="0" y1="0" x2="0" y2="1">
    <stop offset="0%"   stop-color="#0a1020"/>
    <stop offset="100%" stop-color="#020408"/>
  </linearGradient>
  <linearGradient id="b3" x1="0" y1="0" x2="0" y2="1">
    <stop offset="0%"   stop-color="#10081e"/>
    <stop offset="100%" stop-color="#030208"/>
  </linearGradient>
  <linearGradient id="b4" x1="0" y1="0" x2="0" y2="1">
    <stop offset="0%"   stop-color="#0e1418"/>
    <stop offset="100%" stop-color="#020406"/>
  </linearGradient>

  <!-- Ground glow -->
  <linearGradient id="groundGlow" x1="0" y1="0" x2="0" y2="1">
    <stop offset="0%"   stop-color="#aa0000" stop-opacity="0"/>
    <stop offset="100%" stop-color="#cc0000" stop-opacity="0.3"/>
  </linearGradient>

  <!-- Wet ground reflection -->
  <linearGradient id="wetGround" x1="0" y1="0" x2="0" y2="1">
    <stop offset="0%"   stop-color="#1a0008"/>
    <stop offset="100%" stop-color="#000000"/>
  </linearGradient>

  <!-- Spider-Man -->
  <radialGradient id="headRed" cx="50%" cy="35%" r="55%">
    <stop offset="0%"   stop-color="#ff4444"/>
    <stop offset="70%"  stop-color="#cc0000"/>
    <stop offset="100%" stop-color="#880000"/>
  </radialGradient>
  <radialGradient id="torsoRed" cx="45%" cy="30%" r="60%">
    <stop offset="0%"   stop-color="#ff3333"/>
    <stop offset="100%" stop-color="#990000"/>
  </radialGradient>
  <linearGradient id="blueArm" x1="0" y1="0" x2="1" y2="1">
    <stop offset="0%"   stop-color="#3355dd"/>
    <stop offset="100%" stop-color="#112299"/>
  </linearGradient>
  <linearGradient id="blueLeg" x1="0" y1="0" x2="0" y2="1">
    <stop offset="0%"   stop-color="#2244cc"/>
    <stop offset="100%" stop-color="#0a1888"/>
  </linearGradient>

  <!-- Moon -->
  <radialGradient id="moon" cx="50%" cy="50%" r="50%">
    <stop offset="0%"   stop-color="#fffef0" stop-opacity="1"/>
    <stop offset="70%"  stop-color="#fff8d0" stop-opacity="0.9"/>
    <stop offset="100%" stop-color="#ffe880" stop-opacity="0"/>
  </radialGradient>

  <!-- Vignette -->
  <radialGradient id="vignette" cx="50%" cy="50%" r="70%">
    <stop offset="0%"   stop-color="transparent"/>
    <stop offset="100%" stop-color="#000000" stop-opacity="0.7"/>
  </radialGradient>

  <!-- Web gradient -->
  <linearGradient id="webG" x1="0" y1="0" x2="0" y2="1">
    <stop offset="0%"   stop-color="#ffffff" stop-opacity="0.95"/>
    <stop offset="100%" stop-color="#cccccc" stop-opacity="0.2"/>
  </linearGradient>

  <clipPath id="mainClip">
    <rect width="1000" height="320"/>
  </clipPath>
</defs>

<g clip-path="url(#mainClip)">

<!-- ═══ SKY ═══ -->
<rect width="1000" height="320" fill="url(#sky)"/>

<!-- Lightning flash -->
<rect class="lightning" width="1000" height="320" fill="#8888ff"/>

<!-- Stars -->
<circle cx="45"  cy="15" r="0.8" fill="white" opacity="0.6"/>
<circle cx="120" cy="8"  r="1.0" fill="white" opacity="0.8"/>
<circle cx="200" cy="20" r="0.7" fill="white" opacity="0.5"/>
<circle cx="310" cy="10" r="1.1" fill="white" opacity="0.7"/>
<circle cx="430" cy="5"  r="0.9" fill="white" opacity="0.6"/>
<circle cx="560" cy="18" r="0.8" fill="white" opacity="0.7"/>
<circle cx="650" cy="7"  r="1.0" fill="white" opacity="0.5"/>
<circle cx="740" cy="22" r="0.7" fill="white" opacity="0.8"/>
<circle cx="850" cy="12" r="0.9" fill="white" opacity="0.6"/>
<circle cx="950" cy="6"  r="1.1" fill="white" opacity="0.7"/>

<!-- Moon with halo -->
<circle cx="880" cy="45" r="50" fill="url(#moon)" opacity="0.15"/>
<circle cx="880" cy="45" r="32" fill="url(#moon)" opacity="0.25"/>
<circle cx="880" cy="45" r="18" fill="#fffef0" opacity="0.88"/>
<!-- Moon craters -->
<circle cx="886" cy="40" r="3.5" fill="#f0e8c0" opacity="0.35"/>
<circle cx="873" cy="48" r="2"   fill="#f0e8c0" opacity="0.3"/>
<circle cx="885" cy="52" r="1.5" fill="#f0e8c0" opacity="0.25"/>

<!-- ═══ CITY BUILDINGS — Layer 1 scrolling ═══ -->
<g class="city1">

  <!-- Back buildings (darker, further away) -->
  <rect x="0"    y="175" width="40"  height="145" fill="#050b10" opacity="0.6"/>
  <rect x="45"   y="160" width="30"  height="160" fill="#060c12" opacity="0.6"/>
  <rect x="80"   y="168" width="50"  height="152" fill="#050a0e" opacity="0.6"/>
  <rect x="135"  y="155" width="35"  height="165" fill="#060b11" opacity="0.6"/>
  <rect x="175"  y="162" width="55"  height="158" fill="#050a0f" opacity="0.6"/>
  <rect x="235"  y="148" width="45"  height="172" fill="#060c12" opacity="0.6"/>
  <rect x="285"  y="158" width="40"  height="162" fill="#050b10" opacity="0.6"/>
  <rect x="330"  y="145" width="60"  height="175" fill="#060c13" opacity="0.6"/>
  <rect x="395"  y="165" width="38"  height="155" fill="#050a0e" opacity="0.6"/>
  <rect x="438"  y="152" width="52"  height="168" fill="#060b11" opacity="0.6"/>
  <rect x="495"  y="170" width="42"  height="150" fill="#050b10" opacity="0.6"/>
  <rect x="542"  y="144" width="65"  height="176" fill="#060c12" opacity="0.6"/>
  <rect x="612"  y="160" width="36"  height="160" fill="#050a0f" opacity="0.6"/>
  <rect x="653"  y="148" width="58"  height="172" fill="#060b11" opacity="0.6"/>
  <rect x="716"  y="166" width="44"  height="154" fill="#050b10" opacity="0.6"/>
  <rect x="765"  y="142" width="70"  height="178" fill="#060c12" opacity="0.6"/>
  <rect x="840"  y="155" width="40"  height="165" fill="#050a0e" opacity="0.6"/>
  <rect x="885"  y="163" width="55"  height="157" fill="#060b11" opacity="0.6"/>
  <rect x="945"  y="150" width="60"  height="170" fill="#060c13" opacity="0.6"/>

  <!-- Main foreground towers -->
  <!-- Tower 1 -->
  <rect x="0"   y="130" width="60"  height="190" fill="url(#b1)"/>
  <rect x="2"   y="128" width="56"  height="4"   fill="#1a2a3a" opacity="0.8"/>
  <!-- Tower 2 - tall -->
  <rect x="65"  y="80"  width="80"  height="240" fill="url(#b2)"/>
  <rect x="67"  y="78"  width="76"  height="4"   fill="#1a2030" opacity="0.8"/>
  <rect x="100" y="55"  width="8"   height="28"  fill="#0d1520"/>
  <circle cx="104" cy="53" r="5" class="rlight"/>
  <!-- Tower 3 -->
  <rect x="150" y="105" width="55"  height="215" fill="url(#b3)"/>
  <rect x="152" y="103" width="51"  height="4"   fill="#1a1028" opacity="0.8"/>
  <!-- Tower 4 - empire state style -->
  <rect x="210" y="60"  width="100" height="260" fill="url(#b1)"/>
  <rect x="230" y="40"  width="60"  height="22"  fill="url(#b1)"/>
  <rect x="248" y="22"  width="24"  height="20"  fill="url(#b1)"/>
  <rect x="259" y="5"   width="4"   height="20"  fill="#0d1520"/>
  <circle cx="261" cy="4" r="4" class="rlight" style="animation-delay:0.5s"/>
  <!-- Tower 5 -->
  <rect x="315" y="90"  width="70"  height="230" fill="url(#b4)"/>
  <rect x="317" y="88"  width="66"  height="4"   fill="#1a1a20" opacity="0.8"/>
  <rect x="348" y="68"  width="6"   height="24"  fill="#0d1018"/>
  <circle cx="351" cy="66" r="4" class="rlight" style="animation-delay:1s"/>
  <!-- Tower 6 -->
  <rect x="390" y="110" width="50"  height="210" fill="url(#b2)"/>
  <!-- Tower 7 - wide -->
  <rect x="445" y="75"  width="90"  height="245" fill="url(#b3)"/>
  <rect x="447" y="73"  width="86"  height="4"   fill="#1a1028" opacity="0.8"/>
  <rect x="487" y="50"  width="8"   height="25"  fill="#0d0e18"/>
  <circle cx="491" cy="48" r="5" class="rlight" style="animation-delay:0.3s"/>
  <!-- Tower 8 -->
  <rect x="540" y="95"  width="65"  height="225" fill="url(#b1)"/>
  <!-- Tower 9 - tallest -->
  <rect x="610" y="55"  width="110" height="265" fill="url(#b2)"/>
  <rect x="640" y="30"  width="50"  height="28"  fill="url(#b2)"/>
  <rect x="658" y="10"  width="14"  height="22"  fill="url(#b2)"/>
  <rect x="664" y="-2"  width="4"   height="15"  fill="#0d1520"/>
  <circle cx="666" cy="-4" r="5" class="rlight" style="animation-delay:0.7s"/>
  <!-- Tower 10 -->
  <rect x="725" y="85"  width="75"  height="235" fill="url(#b3)"/>
  <rect x="727" y="83"  width="71"  height="4"   fill="#1a1028" opacity="0.8"/>
  <rect x="760" y="62"  width="6"   height="23"  fill="#0d0e18"/>
  <!-- Tower 11 -->
  <rect x="805" y="100" width="60"  height="220" fill="url(#b4)"/>
  <!-- Tower 12 -->
  <rect x="870" y="70"  width="85"  height="250" fill="url(#b1)"/>
  <rect x="872" y="68"  width="81"  height="4"   fill="#1a2030" opacity="0.8"/>
  <rect x="908" y="48"  width="8"   height="24"  fill="#0d1520"/>
  <circle cx="912" cy="46" r="5" class="rlight" style="animation-delay:1.2s"/>
  <!-- Tower 13 -->
  <rect x="960" y="90"  width="45"  height="230" fill="url(#b2)"/>

  <!-- ═══ WINDOWS ═══ -->
  <!-- Tower 2 windows (x=65) -->
  <rect x="72"  y="88"  width="9" height="7" fill="#FFE066" opacity="0.85"/>
  <rect x="86"  y="88"  width="9" height="7" fill="#FFE066" opacity="0.5"/>
  <rect x="100" y="88"  width="9" height="7" fill="#88CCFF" opacity="0.7"/>
  <rect x="114" y="88"  width="9" height="7" fill="#FFE066" opacity="0.6"/>
  <rect x="128" y="88"  width="9" height="7" fill="#FFE066" opacity="0.3"/>
  <rect x="72"  y="103" width="9" height="7" fill="#FFE066" opacity="0.4"/>
  <rect x="100" y="103" width="9" height="7" fill="#FFE066" opacity="0.9"/>
  <rect x="114" y="103" width="9" height="7" fill="#88CCFF" opacity="0.5"/>
  <rect x="128" y="103" width="9" height="7" fill="#FFE066" opacity="0.7"/>
  <rect x="72"  y="118" width="9" height="7" fill="#FFE066" opacity="0.6"/>
  <rect x="86"  y="118" width="9" height="7" fill="#88CCFF" opacity="0.4"/>
  <rect x="128" y="118" width="9" height="7" fill="#FFE066" opacity="0.8"/>
  <rect x="72"  y="133" width="9" height="7" fill="#FFE066" opacity="0.3"/>
  <rect x="114" y="133" width="9" height="7" fill="#FFE066" opacity="0.7"/>

  <!-- Tower 4 windows - Empire State (x=210) -->
  <rect x="218" y="70"  width="11" height="8" fill="#FFE066" opacity="0.9"/>
  <rect x="234" y="70"  width="11" height="8" fill="#FFE066" opacity="0.6"/>
  <rect x="250" y="70"  width="11" height="8" fill="#88CCFF" opacity="0.8"/>
  <rect x="266" y="70"  width="11" height="8" fill="#FFE066" opacity="0.5"/>
  <rect x="282" y="70"  width="11" height="8" fill="#FFE066" opacity="0.7"/>
  <rect x="298" y="70"  width="11" height="8" fill="#88CCFF" opacity="0.4"/>
  <rect x="218" y="86"  width="11" height="8" fill="#FFE066" opacity="0.5"/>
  <rect x="250" y="86"  width="11" height="8" fill="#FFE066" opacity="0.85"/>
  <rect x="266" y="86"  width="11" height="8" fill="#FFE066" opacity="0.4"/>
  <rect x="298" y="86"  width="11" height="8" fill="#88CCFF" opacity="0.7"/>
  <rect x="218" y="102" width="11" height="8" fill="#FFE066" opacity="0.7"/>
  <rect x="234" y="102" width="11" height="8" fill="#88CCFF" opacity="0.5"/>
  <rect x="282" y="102" width="11" height="8" fill="#FFE066" opacity="0.6"/>
  <rect x="218" y="118" width="11" height="8" fill="#FFE066" opacity="0.4"/>
  <rect x="266" y="118" width="11" height="8" fill="#FFE066" opacity="0.8"/>
  <rect x="298" y="118" width="11" height="8" fill="#88CCFF" opacity="0.6"/>
  <rect x="218" y="134" width="11" height="8" fill="#FFE066" opacity="0.6"/>
  <rect x="234" y="134" width="11" height="8" fill="#FFE066" opacity="0.3"/>
  <rect x="282" y="134" width="11" height="8" fill="#FFE066" opacity="0.7"/>

  <!-- Tower 5 windows (x=315) -->
  <rect x="322" y="98"  width="10" height="7" fill="#FFE066" opacity="0.8"/>
  <rect x="336" y="98"  width="10" height="7" fill="#88CCFF" opacity="0.6"/>
  <rect x="350" y="98"  width="10" height="7" fill="#FFE066" opacity="0.5"/>
  <rect x="364" y="98"  width="10" height="7" fill="#FFE066" opacity="0.9"/>
  <rect x="322" y="113" width="10" height="7" fill="#FFE066" opacity="0.4"/>
  <rect x="350" y="113" width="10" height="7" fill="#FFE066" opacity="0.7"/>
  <rect x="364" y="113" width="10" height="7" fill="#88CCFF" opacity="0.5"/>
  <rect x="322" y="128" width="10" height="7" fill="#FFE066" opacity="0.6"/>
  <rect x="336" y="128" width="10" height="7" fill="#FFE066" opacity="0.3"/>
  <rect x="364" y="128" width="10" height="7" fill="#FFE066" opacity="0.7"/>

  <!-- Tower 7 windows (x=445) -->
  <rect x="452" y="83"  width="11" height="8" fill="#FFE066" opacity="0.85"/>
  <rect x="468" y="83"  width="11" height="8" fill="#FFE066" opacity="0.5"/>
  <rect x="484" y="83"  width="11" height="8" fill="#88CCFF" opacity="0.9"/>
  <rect x="500" y="83"  width="11" height="8" fill="#FFE066" opacity="0.6"/>
  <rect x="516" y="83"  width="11" height="8" fill="#FFE066" opacity="0.4"/>
  <rect x="452" y="99"  width="11" height="8" fill="#FFE066" opacity="0.6"/>
  <rect x="484" y="99"  width="11" height="8" fill="#FFE066" opacity="0.8"/>
  <rect x="516" y="99"  width="11" height="8" fill="#88CCFF" opacity="0.5"/>
  <rect x="452" y="115" width="11" height="8" fill="#FFE066" opacity="0.4"/>
  <rect x="468" y="115" width="11" height="8" fill="#88CCFF" opacity="0.7"/>
  <rect x="500" y="115" width="11" height="8" fill="#FFE066" opacity="0.6"/>

  <!-- Tower 9 windows - tallest (x=610) -->
  <rect x="618" y="65"  width="13" height="9" fill="#FFE066" opacity="0.9"/>
  <rect x="636" y="65"  width="13" height="9" fill="#FFE066" opacity="0.6"/>
  <rect x="654" y="65"  width="13" height="9" fill="#88CCFF" opacity="0.8"/>
  <rect x="672" y="65"  width="13" height="9" fill="#FFE066" opacity="0.5"/>
  <rect x="690" y="65"  width="13" height="9" fill="#FFE066" opacity="0.7"/>
  <rect x="708" y="65"  width="13" height="9" fill="#88CCFF" opacity="0.4"/>
  <rect x="618" y="82"  width="13" height="9" fill="#FFE066" opacity="0.5"/>
  <rect x="654" y="82"  width="13" height="9" fill="#FFE066" opacity="0.85"/>
  <rect x="672" y="82"  width="13" height="9" fill="#88CCFF" opacity="0.6"/>
  <rect x="708" y="82"  width="13" height="9" fill="#FFE066" opacity="0.7"/>
  <rect x="618" y="99"  width="13" height="9" fill="#FFE066" opacity="0.7"/>
  <rect x="636" y="99"  width="13" height="9" fill="#88CCFF" opacity="0.5"/>
  <rect x="690" y="99"  width="13" height="9" fill="#FFE066" opacity="0.6"/>
  <rect x="618" y="116" width="13" height="9" fill="#FFE066" opacity="0.4"/>
  <rect x="672" y="116" width="13" height="9" fill="#FFE066" opacity="0.8"/>
  <rect x="708" y="116" width="13" height="9" fill="#88CCFF" opacity="0.6"/>
  <rect x="618" y="133" width="13" height="9" fill="#FFE066" opacity="0.6"/>
  <rect x="636" y="133" width="13" height="9" fill="#FFE066" opacity="0.3"/>
  <rect x="690" y="133" width="13" height="9" fill="#FFE066" opacity="0.7"/>

  <!-- Tower 10 windows (x=725) -->
  <rect x="732" y="93"  width="11" height="8" fill="#FFE066" opacity="0.8"/>
  <rect x="748" y="93"  width="11" height="8" fill="#88CCFF" opacity="0.6"/>
  <rect x="764" y="93"  width="11" height="8" fill="#FFE066" opacity="0.7"/>
  <rect x="780" y="93"  width="11" height="8" fill="#FFE066" opacity="0.4"/>
  <rect x="732" y="109" width="11" height="8" fill="#FFE066" opacity="0.5"/>
  <rect x="764" y="109" width="11" height="8" fill="#FFE066" opacity="0.9"/>
  <rect x="780" y="109" width="11" height="8" fill="#88CCFF" opacity="0.6"/>
  <rect x="732" y="125" width="11" height="8" fill="#FFE066" opacity="0.6"/>
  <rect x="748" y="125" width="11" height="8" fill="#FFE066" opacity="0.3"/>

  <!-- Tower 12 windows (x=870) -->
  <rect x="878" y="78"  width="12" height="8" fill="#FFE066" opacity="0.9"/>
  <rect x="895" y="78"  width="12" height="8" fill="#88CCFF" opacity="0.7"/>
  <rect x="912" y="78"  width="12" height="8" fill="#FFE066" opacity="0.5"/>
  <rect x="929" y="78"  width="12" height="8" fill="#FFE066" opacity="0.8"/>
  <rect x="878" y="94"  width="12" height="8" fill="#FFE066" opacity="0.4"/>
  <rect x="912" y="94"  width="12" height="8" fill="#FFE066" opacity="0.7"/>
  <rect x="929" y="94"  width="12" height="8" fill="#88CCFF" opacity="0.5"/>
  <rect x="878" y="110" width="12" height="8" fill="#FFE066" opacity="0.6"/>
  <rect x="895" y="110" width="12" height="8" fill="#FFE066" opacity="0.3"/>
  <rect x="929" y="110" width="12" height="8" fill="#FFE066" opacity="0.7"/>

</g>

<!-- City layer 2 (seamless) -->
<g class="city2">
  <rect x="65"  y="80"  width="80"  height="240" fill="url(#b2)"/>
  <rect x="210" y="60"  width="100" height="260" fill="url(#b1)"/>
  <rect x="230" y="40"  width="60"  height="22"  fill="url(#b1)"/>
  <rect x="248" y="22"  width="24"  height="20"  fill="url(#b1)"/>
  <rect x="259" y="5"   width="4"   height="20"  fill="#0d1520"/>
  <circle cx="261" cy="4" r="4" class="rlight" style="animation-delay:0.5s"/>
  <rect x="445" y="75"  width="90"  height="245" fill="url(#b3)"/>
  <rect x="487" y="50"  width="8"   height="25"  fill="#0d0e18"/>
  <circle cx="491" cy="48" r="5" class="rlight" style="animation-delay:0.3s"/>
  <rect x="610" y="55"  width="110" height="265" fill="url(#b2)"/>
  <rect x="640" y="30"  width="50"  height="28"  fill="url(#b2)"/>
  <rect x="664" y="-2"  width="4"   height="15"  fill="#0d1520"/>
  <circle cx="666" cy="-4" r="5" class="rlight" style="animation-delay:0.7s"/>
  <rect x="870" y="70"  width="85"  height="250" fill="url(#b1)"/>
  <rect x="908" y="48"  width="8"   height="24"  fill="#0d1520"/>
  <circle cx="912" cy="46" r="5" class="rlight" style="animation-delay:1.2s"/>
  <!-- Duplicate windows for layer 2 -->
  <rect x="72"  y="88"  width="9" height="7" fill="#FFE066" opacity="0.85"/>
  <rect x="100" y="88"  width="9" height="7" fill="#88CCFF" opacity="0.7"/>
  <rect x="218" y="70"  width="11" height="8" fill="#FFE066" opacity="0.9"/>
  <rect x="250" y="70"  width="11" height="8" fill="#88CCFF" opacity="0.8"/>
  <rect x="452" y="83"  width="11" height="8" fill="#FFE066" opacity="0.85"/>
  <rect x="484" y="83"  width="11" height="8" fill="#88CCFF" opacity="0.9"/>
  <rect x="618" y="65"  width="13" height="9" fill="#FFE066" opacity="0.9"/>
  <rect x="654" y="65"  width="13" height="9" fill="#88CCFF" opacity="0.8"/>
  <rect x="878" y="78"  width="12" height="8" fill="#FFE066" opacity="0.9"/>
  <rect x="912" y="78"  width="12" height="8" fill="#FFE066" opacity="0.5"/>
</g>

<!-- ═══ FOG / ATMOSPHERE ═══ -->
<ellipse class="fog1" cx="400" cy="240" rx="600" ry="70" fill="#550010" opacity="0.15"/>
<ellipse class="fog2" cx="700" cy="230" rx="500" ry="55" fill="#330018" opacity="0.12"/>
<ellipse class="fog1" cx="200" cy="260" rx="400" ry="45" fill="#220008" opacity="0.18" style="animation-delay:-6s"/>

<!-- ═══ RAIN ═══ -->
<g class="rain1" opacity="0.35">
  <line x1="50"  y1="0" x2="47"  y2="18" stroke="#aaccff" stroke-width="0.7"/>
  <line x1="150" y1="0" x2="147" y2="18" stroke="#aaccff" stroke-width="0.5"/>
  <line x1="250" y1="0" x2="247" y2="18" stroke="#aaccff" stroke-width="0.8"/>
  <line x1="350" y1="0" x2="347" y2="18" stroke="#aaccff" stroke-width="0.6"/>
  <line x1="450" y1="0" x2="447" y2="18" stroke="#aaccff" stroke-width="0.7"/>
  <line x1="550" y1="0" x2="547" y2="18" stroke="#aaccff" stroke-width="0.5"/>
  <line x1="650" y1="0" x2="647" y2="18" stroke="#aaccff" stroke-width="0.8"/>
  <line x1="750" y1="0" x2="747" y2="18" stroke="#aaccff" stroke-width="0.6"/>
  <line x1="850" y1="0" x2="847" y2="18" stroke="#aaccff" stroke-width="0.7"/>
  <line x1="950" y1="0" x2="947" y2="18" stroke="#aaccff" stroke-width="0.5"/>
</g>
<g class="rain2" opacity="0.3">
  <line x1="100" y1="0" x2="97"  y2="18" stroke="#bbddff" stroke-width="0.6"/>
  <line x1="200" y1="0" x2="197" y2="18" stroke="#bbddff" stroke-width="0.8"/>
  <line x1="300" y1="0" x2="297" y2="18" stroke="#bbddff" stroke-width="0.5"/>
  <line x1="400" y1="0" x2="397" y2="18" stroke="#bbddff" stroke-width="0.7"/>
  <line x1="500" y1="0" x2="497" y2="18" stroke="#bbddff" stroke-width="0.6"/>
  <line x1="600" y1="0" x2="597" y2="18" stroke="#bbddff" stroke-width="0.8"/>
  <line x1="700" y1="0" x2="697" y2="18" stroke="#bbddff" stroke-width="0.5"/>
  <line x1="800" y1="0" x2="797" y2="18" stroke="#bbddff" stroke-width="0.7"/>
  <line x1="900" y1="0" x2="897" y2="18" stroke="#bbddff" stroke-width="0.6"/>
</g>
<g class="rain3" opacity="0.25">
  <line x1="75"  y1="0" x2="72"  y2="15" stroke="#99bbee" stroke-width="0.5"/>
  <line x1="175" y1="0" x2="172" y2="15" stroke="#99bbee" stroke-width="0.7"/>
  <line x1="275" y1="0" x2="272" y2="15" stroke="#99bbee" stroke-width="0.4"/>
  <line x1="375" y1="0" x2="372" y2="15" stroke="#99bbee" stroke-width="0.6"/>
  <line x1="475" y1="0" x2="472" y2="15" stroke="#99bbee" stroke-width="0.5"/>
  <line x1="575" y1="0" x2="572" y2="15" stroke="#99bbee" stroke-width="0.7"/>
  <line x1="675" y1="0" x2="672" y2="15" stroke="#99bbee" stroke-width="0.4"/>
  <line x1="775" y1="0" x2="772" y2="15" stroke="#99bbee" stroke-width="0.6"/>
  <line x1="875" y1="0" x2="872" y2="15" stroke="#99bbee" stroke-width="0.5"/>
  <line x1="975" y1="0" x2="972" y2="15" stroke="#99bbee" stroke-width="0.7"/>
</g>
<g class="rain4" opacity="0.2">
  <line x1="25"  y1="0" x2="22"  y2="14" stroke="#aabbdd" stroke-width="0.4"/>
  <line x1="125" y1="0" x2="122" y2="14" stroke="#aabbdd" stroke-width="0.6"/>
  <line x1="225" y1="0" x2="222" y2="14" stroke="#aabbdd" stroke-width="0.5"/>
  <line x1="325" y1="0" x2="322" y2="14" stroke="#aabbdd" stroke-width="0.4"/>
  <line x1="425" y1="0" x2="422" y2="14" stroke="#aabbdd" stroke-width="0.6"/>
  <line x1="525" y1="0" x2="522" y2="14" stroke="#aabbdd" stroke-width="0.5"/>
  <line x1="625" y1="0" x2="622" y2="14" stroke="#aabbdd" stroke-width="0.4"/>
  <line x1="725" y1="0" x2="722" y2="14" stroke="#aabbdd" stroke-width="0.6"/>
  <line x1="825" y1="0" x2="822" y2="14" stroke="#aabbdd" stroke-width="0.5"/>
  <line x1="925" y1="0" x2="922" y2="14" stroke="#aabbdd" stroke-width="0.4"/>
</g>
<g class="rain5" opacity="0.28">
  <line x1="60"  y1="0" x2="57"  y2="16" stroke="#ccddff" stroke-width="0.6"/>
  <line x1="160" y1="0" x2="157" y2="16" stroke="#ccddff" stroke-width="0.4"/>
  <line x1="260" y1="0" x2="257" y2="16" stroke="#ccddff" stroke-width="0.7"/>
  <line x1="360" y1="0" x2="357" y2="16" stroke="#ccddff" stroke-width="0.5"/>
  <line x1="460" y1="0" x2="457" y2="16" stroke="#ccddff" stroke-width="0.6"/>
  <line x1="560" y1="0" x2="557" y2="16" stroke="#ccddff" stroke-width="0.4"/>
  <line x1="660" y1="0" x2="657" y2="16" stroke="#ccddff" stroke-width="0.7"/>
  <line x1="760" y1="0" x2="757" y2="16" stroke="#ccddff" stroke-width="0.5"/>
  <line x1="860" y1="0" x2="857" y2="16" stroke="#ccddff" stroke-width="0.6"/>
  <line x1="960" y1="0" x2="957" y2="16" stroke="#ccddff" stroke-width="0.4"/>
</g>

<!-- ═══ WET GROUND ═══ -->
<rect x="0" y="270" width="1000" height="50" fill="url(#wetGround)"/>
<rect x="0" y="272" width="1000" height="48" fill="url(#groundGlow)"/>
<!-- Ground reflections (blurry window lights) -->
<rect x="80"  y="278" width="14" height="3" fill="#FFE066" opacity="0.25" rx="1"/>
<rect x="230" y="280" width="18" height="2" fill="#FFE066" opacity="0.2"  rx="1"/>
<rect x="480" y="279" width="16" height="3" fill="#88CCFF" opacity="0.22" rx="1"/>
<rect x="660" y="278" width="20" height="2" fill="#FFE066" opacity="0.18" rx="1"/>
<rect x="890" y="280" width="15" height="3" fill="#FFE066" opacity="0.2"  rx="1"/>

<!-- ═══ SPIDER-MAN ═══ -->
<g class="spidey spidey-glow">

  <!-- Web rope -->
  <line x1="500" y1="0" x2="500" y2="105"
        stroke="url(#webG)" stroke-width="2"
        class="web-rope"/>

  <!-- Secondary web trails -->
  <path d="M500 108 Q540 95 575 82" stroke="white" stroke-width="1" fill="none"
        opacity="0.5" stroke-dasharray="4,3"/>
  <path d="M500 108 Q460 95 425 82" stroke="white" stroke-width="0.7" fill="none"
        opacity="0.3" stroke-dasharray="3,4"/>

  <!-- ══ HEAD ══ -->
  <ellipse cx="500" cy="120" rx="22" ry="24" fill="url(#headRed)"/>

  <!-- Mask web pattern -->
  <!-- Vertical center -->
  <line x1="500" y1="96"  x2="500" y2="144" stroke="#770000" stroke-width="0.9" opacity="0.8"/>
  <!-- Horizontals -->
  <line x1="479" y1="108" x2="521" y2="108" stroke="#770000" stroke-width="0.7" opacity="0.7"/>
  <line x1="478" y1="120" x2="522" y2="120" stroke="#770000" stroke-width="0.7" opacity="0.7"/>
  <line x1="480" y1="132" x2="520" y2="132" stroke="#770000" stroke-width="0.6" opacity="0.6"/>
  <!-- Diagonals -->
  <line x1="484" y1="98"  x2="516" y2="142" stroke="#770000" stroke-width="0.6" opacity="0.6"/>
  <line x1="516" y1="98"  x2="484" y2="142" stroke="#770000" stroke-width="0.6" opacity="0.6"/>
  <!-- Radial arcs -->
  <ellipse cx="500" cy="120" rx="14" ry="16" fill="none" stroke="#770000" stroke-width="0.5" opacity="0.5"/>
  <ellipse cx="500" cy="120" rx="7"  ry="8"  fill="none" stroke="#770000" stroke-width="0.4" opacity="0.4"/>

  <!-- ══ EYES — big classic white lenses ══ -->
  <!-- Left eye -->
  <ellipse cx="489" cy="113" rx="11" ry="8"  fill="white"  opacity="0.97"/>
  <ellipse cx="489" cy="113" rx="9"  ry="6.5" fill="#e0e8f0"/>
  <ellipse cx="486" cy="111" rx="4"  ry="3"   fill="white"  opacity="0.7"/>
  <!-- Right eye -->
  <ellipse cx="511" cy="113" rx="11" ry="8"  fill="white"  opacity="0.97"/>
  <ellipse cx="511" cy="113" rx="9"  ry="6.5" fill="#e0e8f0"/>
  <ellipse cx="508" cy="111" rx="4"  ry="3"   fill="white"  opacity="0.7"/>

  <!-- ══ NECK ══ -->
  <rect x="495" y="140" width="10" height="8" fill="url(#headRed)" rx="2"/>

  <!-- ══ TORSO ══ -->
  <ellipse cx="500" cy="168" rx="22" ry="28" fill="url(#torsoRed)"/>
  <!-- Chest web lines -->
  <line x1="500" y1="142" x2="500" y2="194" stroke="#770000" stroke-width="1"   opacity="0.7"/>
  <line x1="479" y1="168" x2="521" y2="168" stroke="#770000" stroke-width="0.8" opacity="0.6"/>
  <ellipse cx="500" cy="168" rx="14" ry="18" fill="none" stroke="#770000" stroke-width="0.7" opacity="0.5"/>
  <ellipse cx="500" cy="168" rx="7"  ry="9"  fill="none" stroke="#770000" stroke-width="0.5" opacity="0.4"/>

  <!-- Spider chest emblem -->
  <g transform="translate(500,165)">
    <ellipse cx="0" cy="2"  rx="7"  ry="4.5" fill="#111" opacity="0.9"/>
    <ellipse cx="0" cy="-5" rx="4"  ry="3.5" fill="#111" opacity="0.9"/>
    <!-- 8 legs -->
    <line x1="-7" y1="0"  x2="-14" y2="-5"  stroke="#111" stroke-width="1.5" opacity="0.9"/>
    <line x1="-7" y1="2"  x2="-14" y2="5"   stroke="#111" stroke-width="1.5" opacity="0.9"/>
    <line x1="-6" y1="4"  x2="-12" y2="10"  stroke="#111" stroke-width="1.5" opacity="0.9"/>
    <line x1="7"  y1="0"  x2="14"  y2="-5"  stroke="#111" stroke-width="1.5" opacity="0.9"/>
    <line x1="7"  y1="2"  x2="14"  y2="5"   stroke="#111" stroke-width="1.5" opacity="0.9"/>
    <line x1="6"  y1="4"  x2="12"  y2="10"  stroke="#111" stroke-width="1.5" opacity="0.9"/>
  </g>

  <!-- ══ LEFT ARM — reaching up for web ══ -->
  <!-- Upper arm blue -->
  <path d="M480 150 Q455 135 442 118" stroke="url(#blueArm)" stroke-width="13" fill="none" stroke-linecap="round"/>
  <!-- Red sleeve overlay -->
  <path d="M480 150 Q468 143 460 136" stroke="url(#torsoRed)" stroke-width="11" fill="none" stroke-linecap="round"/>
  <!-- Forearm blue -->
  <path d="M460 136 Q449 126 442 118" stroke="url(#blueArm)" stroke-width="11" fill="none" stroke-linecap="round"/>

  <!-- ══ RIGHT ARM — dynamic outstretched web-shooting ══ -->
  <!-- Upper arm blue -->
  <path d="M520 150 Q548 133 562 115" stroke="url(#blueArm)" stroke-width="13" fill="none" stroke-linecap="round"/>
  <!-- Red sleeve -->
  <path d="M520 150 Q532 143 540 136" stroke="url(#torsoRed)" stroke-width="11" fill="none" stroke-linecap="round"/>
  <!-- Forearm -->
  <path d="M540 136 Q552 125 562 115" stroke="url(#blueArm)" stroke-width="11" fill="none" stroke-linecap="round"/>

  <!-- ══ HANDS ══ -->
  <!-- Left hand - gripping web -->
  <ellipse cx="441" cy="116" rx="9" ry="8" fill="url(#headRed)"/>
  <ellipse cx="438" cy="113" rx="3" ry="2" fill="white" opacity="0.6"/>
  <!-- Right hand - web shooting -->
  <ellipse cx="563" cy="113" rx="9" ry="8" fill="url(#headRed)"/>
  <ellipse cx="560" cy="110" rx="3" ry="2" fill="white" opacity="0.6"/>
  <!-- Web shooter spark right -->
  <circle cx="570" cy="108" r="3" fill="white" opacity="0.7"/>
  <line x1="570" y1="108" x2="590" y2="100" stroke="white" stroke-width="1.2" opacity="0.6" stroke-dasharray="3,2"/>
  <line x1="570" y1="108" x2="592" y2="112" stroke="white" stroke-width="0.8" opacity="0.4" stroke-dasharray="2,3"/>

  <!-- ══ HIPS ══ -->
  <ellipse cx="500" cy="193" rx="20" ry="13" fill="url(#blueLeg)"/>

  <!-- ══ LEFT LEG — bent dramatically ══ -->
  <!-- Upper leg red -->
  <path d="M488 202 Q462 225 450 250" stroke="url(#torsoRed)" stroke-width="13" fill="none" stroke-linecap="round"/>
  <!-- Lower leg blue -->
  <path d="M450 250 Q444 265 440 280" stroke="url(#blueLeg)" stroke-width="12" fill="none" stroke-linecap="round"/>
  <!-- Left boot -->
  <ellipse cx="439" cy="282" rx="13" ry="9" fill="url(#blueLeg)"/>
  <ellipse cx="436" cy="279" rx="5"  ry="3" fill="#3355cc" opacity="0.5"/>

  <!-- ══ RIGHT LEG — extended ══ -->
  <!-- Upper leg red -->
  <path d="M512 202 Q538 226 550 252" stroke="url(#torsoRed)" stroke-width="13" fill="none" stroke-linecap="round"/>
  <!-- Lower leg blue -->
  <path d="M550 252 Q556 267 560 282" stroke="url(#blueLeg)" stroke-width="12" fill="none" stroke-linecap="round"/>
  <!-- Right boot -->
  <ellipse cx="561" cy="284" rx="13" ry="9" fill="url(#blueLeg)"/>
  <ellipse cx="558" cy="281" rx="5"  ry="3" fill="#3355cc" opacity="0.5"/>

</g>
<!-- END SPIDEY -->

<!-- ═══ VIGNETTE ═══ -->
<rect width="1000" height="320" fill="url(#vignette)"/>

<!-- Red ground line -->
<line x1="0" y1="270" x2="1000" y2="270" stroke="#cc0000" stroke-width="0.8" opacity="0.4"/>

</g>
</svg>
